<svg id="visual" viewBox="0 0 1366 768" width="1366" height="768" xmlns="http://www.w3.org/2000/svg" xmlns:xlink="http://www.w3.org/1999/xlink" version="1.1"><rect x="0" y="0" width="1366" height="768" fill="#FFFFFF"></rect><defs><linearGradient id="grad1_0" x1="43.8%" y1="100%" x2="100%" y2="0%"><stop offset="14.427083333333334%" stop-color="#007cbc" stop-opacity="1"></stop><stop offset="85.57291666666667%" stop-color="#007cbc" stop-opacity="1"></stop></linearGradient></defs><defs><linearGradient id="grad1_1" x1="43.8%" y1="100%" x2="100%" y2="0%"><stop offset="14.427083333333334%" stop-color="#007cbc" stop-opacity="1"></stop><stop offset="85.57291666666667%" stop-color="#79a5d3" stop-opacity="1"></stop></linearGradient></defs><defs><linearGradient id="grad1_2" x1="43.8%" y1="100%" x2="100%" y2="0%"><stop offset="14.427083333333334%" stop-color="#bed1e9" stop-opacity="1"></stop><stop offset="85.57291666666667%" stop-color="#79a5d3" stop-opacity="1"></stop></linearGradient></defs><defs><linearGradient id="grad1_3" x1="43.8%" y1="100%" x2="100%" y2="0%"><stop offset="14.427083333333334%" stop-color="#bed1e9" stop-opacity="1"></stop><stop offset="85.57291666666667%" stop-color="#ffffff" stop-opacity="1"></stop></linearGradient></defs><defs><linearGradient id="grad2_0" x1="0%" y1="100%" x2="56.2%" y2="0%"><stop offset="14.427083333333334%" stop-color="#007cbc" stop-opacity="1"></stop><stop offset="85.57291666666667%" stop-color="#007cbc" stop-opacity="1"></stop></linearGradient></defs><defs><linearGradient id="grad2_1" x1="0%" y1="100%" x2="56.2%" y2="0%"><stop offset="14.427083333333334%" stop-color="#79a5d3" stop-opacity="1"></stop><stop offset="85.57291666666667%" stop-color="#007cbc" stop-opacity="1"></stop></linearGradient></defs><defs><linearGradient id="grad2_2" x1="0%" y1="100%" x2="56.2%" y2="0%"><stop offset="14.427083333333334%" stop-color="#79a5d3" stop-opacity="1"></stop><stop offset="85.57291666666667%" stop-color="#bed1e9" stop-opacity="1"></stop></linearGradient></defs><defs><linearGradient id="grad2_3" x1="0%" y1="100%" x2="56.2%" y2="0%"><stop offset="14.427083333333334%" stop-color="#ffffff" stop-opacity="1"></stop><stop offset="85.57291666666667%" stop-color="#bed1e9" stop-opacity="1"></stop></linearGradient></defs><g transform="translate(1366, 768)"><path d="M-268.8 0C-263.6 -50.2 -258.4 -100.3 -232.8 -134.4C-207.2 -168.5 -161.2 -186.4 -119 -206.1C-76.8 -225.8 -38.4 -247.3 0 -268.8L0 0Z" fill="#dfe8f4"></path><path d="M-201.6 0C-197.7 -37.6 -193.8 -75.3 -174.6 -100.8C-155.4 -126.3 -120.9 -139.8 -89.3 -154.6C-57.6 -169.4 -28.8 -185.5 0 -201.6L0 0Z" fill="#9cbbde"></path><path d="M-134.4 0C-131.8 -25.1 -129.2 -50.2 -116.4 -67.2C-103.6 -84.2 -80.6 -93.2 -59.5 -103.1C-38.4 -112.9 -19.2 -123.7 0 -134.4L0 0Z" fill="#5090c7"></path><path d="M-67.2 0C-65.9 -12.5 -64.6 -25.1 -58.2 -33.6C-51.8 -42.1 -40.3 -46.6 -29.8 -51.5C-19.2 -56.5 -9.6 -61.8 0 -67.2L0 0Z" fill="#007cbc"></path></g><g transform="translate(0, 0)"><path d="M268.8 0C266 54.3 263.2 108.7 232.8 134.4C202.4 160.1 144.4 157.3 101 174.9C57.6 192.6 28.8 230.7 0 268.8L0 0Z" fill="#dfe8f4"></path><path d="M201.6 0C199.5 40.7 197.4 81.5 174.6 100.8C151.8 120.1 108.3 118 75.8 131.2C43.2 144.4 21.6 173 0 201.6L0 0Z" fill="#9cbbde"></path><path d="M134.4 0C133 27.2 131.6 54.3 116.4 67.2C101.2 80.1 72.2 78.7 50.5 87.5C28.8 96.3 14.4 115.3 0 134.4L0 0Z" fill="#5090c7"></path><path d="M67.2 0C66.5 13.6 65.8 27.2 58.2 33.6C50.6 40 36.1 39.3 25.3 43.7C14.4 48.1 7.2 57.7 0 67.2L0 0Z" fill="#007cbc"></path></g></svg>