<svg id="visual" viewBox="0 0 900 600" width="900" height="600" xmlns="http://www.w3.org/2000/svg" xmlns:xlink="http://www.w3.org/1999/xlink" version="1.1"><rect x="0" y="0" width="900" height="600" fill="#002233"></rect><path d="M419 0L377.2 16.7C335.3 33.3 251.7 66.7 205.8 100C160 133.3 152 166.7 200.5 200C249 233.3 354 266.7 361 300C368 333.3 277 366.7 261.8 400C246.7 433.3 307.3 466.7 319.8 500C332.3 533.3 296.7 566.7 278.8 583.3L261 600L0 600L0 583.3C0 566.7 0 533.3 0 500C0 466.7 0 433.3 0 400C0 366.7 0 333.3 0 300C0 266.7 0 233.3 0 200C0 166.7 0 133.3 0 100C0 66.7 0 33.3 0 16.7L0 0Z" fill="#0066FF" stroke-linecap="round" stroke-linejoin="miter"></path></svg>